<svg width="203" height="52" viewBox="0 0 203 52" fill="none" xmlns="http://www.w3.org/2000/svg">
<g clip-path="url(#clip0_209_433)">
<path d="M20.5696 36.6399L31.1176 28.3133V28.3277L31.15 28.3022V35.7382L31.1176 35.7642V35.7903L20.5696 44.2868L12.4167 37.7722L7.8189 34.1158V44.7966L7.80975 44.7887V44.7966L7.05833 44.1508L0.494141 38.5773L0.528707 38.5389L0.494141 38.5092V20.6665L20.5696 36.6399ZM40.645 38.849L33.6697 44.7966V26.1043L40.645 20.6665V38.849ZM40.645 16.7582L26.1838 28.1434L20.5696 32.9014L0.494141 16.7582V7.75187L21.1413 24.1408L40.7903 7.21106L40.645 16.7582Z" fill="url(#paint0_linear_209_433)"/>
<path d="M20.5697 36.64L20.2506 37.0384L20.5685 37.2912L20.8873 37.0396L20.5697 36.64ZM31.1177 28.3133H31.6292V27.2595L30.8003 27.9139L31.1177 28.3133ZM31.1177 28.3277H30.6064V29.383L31.4356 28.727L31.1177 28.3277ZM31.15 28.3022H31.6615V27.2472L30.8321 27.9029L31.15 28.3022ZM31.15 35.7382L31.4708 36.1352L31.6615 35.9821V35.7382H31.15ZM31.1177 35.7642L30.7969 35.3672L30.6064 35.5202V35.7642H31.1177ZM31.1177 35.7904L31.4393 36.1867L31.6292 36.0338V35.7904H31.1177ZM20.5697 44.2869L20.2498 44.6846L20.5709 44.9411L20.8911 44.6833L20.5697 44.2869ZM12.4169 37.7723L12.7368 37.3745L12.7362 37.3741L12.7357 37.3738L12.4169 37.7723ZM7.81913 34.1159L8.1381 33.7174L7.30766 33.057V34.1159H7.81913ZM7.81913 44.7967L7.48674 45.1841L8.33045 45.9031V44.7967H7.81913ZM7.80982 44.7888L8.14221 44.4014L7.29835 43.6822V44.7888H7.80982ZM7.80982 44.7967L7.47591 45.1827L8.3213 45.9092V44.7967H7.80982ZM7.0584 44.1508L7.39232 43.7648L7.39125 43.7637L7.39003 43.7628L7.0584 44.1508ZM0.494258 38.5774L0.113147 38.2375L-0.236328 38.6268L0.162585 38.9654L0.494258 38.5774ZM0.528839 38.5389L0.909952 38.8789L1.25752 38.4918L0.862556 38.1527L0.528839 38.5389ZM0.494258 38.5093H-0.0171707V38.743L0.160541 38.8955L0.494258 38.5093ZM0.494258 20.6666L0.813332 20.2682L-0.0171707 19.6074V20.6666H0.494258ZM40.645 38.8491L40.9776 39.2365L41.1565 39.0838V38.8491H40.645ZM33.6697 44.7967H33.1583V45.9036L34.0021 45.184L33.6697 44.7967ZM33.6697 26.1044L33.3546 25.7028L33.1583 25.8559V26.1044H33.6697ZM40.645 20.6666H41.1565V19.6208L40.33 20.265L40.645 20.6666ZM40.645 16.7582L40.9622 17.1582L41.1528 17.008L41.1565 16.766L40.645 16.7582ZM26.184 28.1435L25.867 27.7434L25.8597 27.7492L25.8527 27.7551L26.184 28.1435ZM20.5697 32.9015L20.2486 33.2983L20.5782 33.5633L20.901 33.2899L20.5697 32.9015ZM0.494258 16.7582H-0.0171707V17.0019L0.173157 17.1549L0.494258 16.7582ZM0.494258 7.75193L0.812843 7.35317L-0.0171707 6.69432V7.75193H0.494258ZM21.1414 24.1408L20.8229 24.5397L21.1548 24.8032L21.4759 24.5266L21.1414 24.1408ZM40.7904 7.21111L41.3019 7.21885L41.3191 6.08179L40.456 6.82548L40.7904 7.21111ZM20.5697 36.64L20.8873 37.0396L31.4353 28.713L31.1177 28.3133L30.8003 27.9139L20.2522 36.2404L20.5697 36.64ZM31.1177 28.3133H30.6064V28.3277H31.1177H31.6292V28.3133H31.1177ZM31.1177 28.3277L31.4356 28.727L31.4678 28.7016L31.15 28.3022L30.8321 27.9029L30.7998 27.9285L31.1177 28.3277ZM31.15 28.3022H30.6386V35.7382H31.15H31.6615V28.3022H31.15ZM31.15 35.7382L30.8291 35.3414L30.7969 35.3672L31.1177 35.7642L31.4386 36.161L31.4708 36.1352L31.15 35.7382ZM31.1177 35.7642H30.6064V35.7904H31.1177H31.6292V35.7642H31.1177ZM31.1177 35.7904L30.7963 35.3938L20.2483 43.8903L20.5697 44.2869L20.8911 44.6833L31.4393 36.1867L31.1177 35.7904ZM20.5697 44.2869L20.8896 43.8891L12.7368 37.3745L12.4169 37.7723L12.097 38.1699L20.2498 44.6846L20.5697 44.2869ZM12.4169 37.7723L12.7357 37.3738L8.1381 33.7174L7.81913 34.1159L7.50001 34.5144L12.0978 38.1707L12.4169 37.7723ZM7.81913 34.1159H7.30766V44.7967H7.81913H8.33045V34.1159H7.81913ZM7.81913 44.7967L8.15137 44.4093L8.14221 44.4014L7.80982 44.7888L7.47744 45.1762L7.48674 45.1841L7.81913 44.7967ZM7.80982 44.7888H7.29835V44.7967H7.80982H8.3213V44.7888H7.80982ZM7.80982 44.7967L8.14389 44.4106L7.39232 43.7648L7.0584 44.1508L6.72449 44.5368L7.47591 45.1827L7.80982 44.7967ZM7.0584 44.1508L7.39003 43.7628L0.825946 38.1894L0.494258 38.5774L0.162585 38.9654L6.72677 44.5388L7.0584 44.1508ZM0.494258 38.5774L0.875386 38.9174L0.909952 38.8789L0.528839 38.5389L0.147713 38.1989L0.113147 38.2375L0.494258 38.5774ZM0.528839 38.5389L0.862556 38.1527L0.827991 38.1231L0.494258 38.5093L0.160541 38.8955L0.195047 38.9253L0.528839 38.5389ZM0.494258 38.5093H1.00569V20.6666H0.494258H-0.0171707V38.5093H0.494258ZM0.494258 20.6666L0.175201 21.0649L20.2506 37.0384L20.5697 36.64L20.8888 36.2416L0.813332 20.2682L0.494258 20.6666ZM40.645 38.8491L40.3126 38.4618L33.3372 44.4093L33.6697 44.7967L34.0021 45.184L40.9776 39.2365L40.645 38.8491ZM33.6697 44.7967H34.1812V26.1044H33.6697H33.1583V44.7967H33.6697ZM33.6697 26.1044L33.9847 26.5059L40.9602 21.0681L40.645 20.6666L40.33 20.265L33.3546 25.7028L33.6697 26.1044ZM40.645 20.6666H40.1337V38.8491H40.645H41.1565V20.6666H40.645ZM40.645 16.7582L40.328 16.3582L25.867 27.7434L26.184 28.1435L26.501 28.5435L40.9622 17.1582L40.645 16.7582ZM26.184 28.1435L25.8527 27.7551L20.2384 32.5133L20.5697 32.9015L20.901 33.2899L26.5153 28.5318L26.184 28.1435ZM20.5697 32.9015L20.8908 32.5048L0.815375 16.3615L0.494258 16.7582L0.173157 17.1549L20.2486 33.2983L20.5697 32.9015ZM0.494258 16.7582H1.00569V7.75193H0.494258H-0.0171707V16.7582H0.494258ZM0.494258 7.75193L0.175673 8.15067L20.8229 24.5397L21.1414 24.1408L21.4601 23.7422L0.812843 7.35317L0.494258 7.75193ZM21.1414 24.1408L21.4759 24.5266L41.1249 7.59675L40.7904 7.21111L40.456 6.82548L20.807 23.7552L21.1414 24.1408ZM40.7904 7.21111L40.2791 7.20338L40.1337 16.7505L40.645 16.7582L41.1565 16.766L41.3019 7.21885L40.7904 7.21111Z" fill="white"/>
<path d="M26.1838 28.1434L20.7051 24.5166L40.7903 7.21106L40.645 16.7582L26.1838 28.1434Z" fill="#132334"/>
<path d="M0.494141 38.5093V20.6666L20.5696 36.6401L31.1176 28.3135V35.7904L20.5696 44.2869L7.80975 34.0911V44.7968L0.494141 38.5093Z" fill="url(#paint1_linear_209_433)"/>
<path d="M0.494141 16.7582V7.75195L26.1839 28.1435L20.5696 32.9015L0.494141 16.7582Z" fill="url(#paint2_linear_209_433)"/>
<path d="M0.494141 38.5773L7.8189 44.7967V34.1158L20.5696 44.2558L31.1498 35.7382V28.3023L20.5696 36.6847L9.85352 28.167L0.494141 38.5773Z" fill="url(#paint3_linear_209_433)"/>
<path d="M40.6454 20.6665L33.6699 26.1043V44.7966L40.6454 38.849V20.6665Z" fill="#132334"/>
<path d="M16.6362 20.5959L11.8887 25.8688L20.57 32.8991L26.1314 28.1671L16.6362 20.5959Z" fill="url(#paint4_linear_209_433)"/>
<path d="M26.1838 28.1434L20.7051 24.5166L40.7903 7.21106L40.645 16.7582L26.1838 28.1434Z" fill="#132334"/>
<path d="M0.494141 38.5093V20.6666L20.5696 36.6401L31.1176 28.3135V35.7904L20.5696 44.2869L7.80975 34.0911V44.7968L0.494141 38.5093Z" fill="url(#paint5_linear_209_433)"/>
<path d="M0.494141 16.7582V7.75195L26.1839 28.1435L20.5696 32.9015L0.494141 16.7582Z" fill="url(#paint6_linear_209_433)"/>
<path d="M0.494141 38.5773L7.8189 44.7967V34.1158L20.5696 44.2558L31.1498 35.7382V28.3023L20.5696 36.6847L9.85352 28.167L0.494141 38.5773Z" fill="url(#paint7_linear_209_433)"/>
<path d="M40.6454 20.6665L33.6699 26.1043V44.7966L40.6454 38.849V20.6665Z" fill="#132334"/>
<path d="M16.6362 20.5959L11.8887 25.8688L20.57 32.8991L26.1314 28.1671L16.6362 20.5959Z" fill="url(#paint8_linear_209_433)"/>
<path d="M53.2206 35.6933H50V17H53.2206L59.3506 31.8829L65.4802 17H68.7527V35.6933H65.5321V29.9396C65.5321 26.1803 65.5321 25.0806 65.7139 23.7509L60.8829 35.6933H57.8179L53.0128 23.7765C53.1946 24.9016 53.2206 26.6662 53.2206 28.9932V35.6933ZM75.6302 35.6933H72.1757L79.0326 17H82.4353L89.2923 35.6933H85.7859L84.2535 31.3714H77.1626L75.6302 35.6933ZM80.3054 22.5747L78.1498 28.6096H83.2923L81.1107 22.5747C80.9548 22.0887 80.773 21.5262 80.7209 21.1426C80.6431 21.5006 80.4872 22.0632 80.3054 22.5747ZM95.2717 35.6933L88.1033 17H91.6356L95.7912 27.7659C96.2067 28.891 96.5704 29.9907 96.9862 31.4994C97.4535 29.8627 97.8431 28.712 98.2068 27.7659L102.311 17H105.765L98.7003 35.6933H95.2717ZM120.965 35.6933H109.173V17H120.965V20.0174H112.497V24.825H120.081V27.7148H112.497V32.6756H120.965V35.6933ZM128.932 17V32.6756H136.88V35.6933H125.608V17H128.932ZM143.948 17V32.6756H151.895V35.6933H140.623V17H143.948ZM158.962 17V35.6933H155.638V17H158.962ZM164.08 28.8655V17H167.405V28.6609C167.405 31.3459 168.885 32.8291 171.587 32.8291C174.288 32.8291 175.794 31.3204 175.794 28.6609V17H179.119V28.8655C179.119 33.2382 176.21 36 171.587 36C166.989 36 164.08 33.2637 164.08 28.8655ZM187.468 35.6933H184.247V17H187.468L193.598 31.8829L199.727 17H203V35.6933H199.779V29.9396C199.779 26.1803 199.779 25.0806 199.961 23.7509L195.13 35.6933H192.065L187.26 23.7765C187.442 24.9016 187.468 26.6662 187.468 28.9932V35.6933Z" fill="#132334"/>
</g>
<defs>
<linearGradient id="paint0_linear_209_433" x1="7.68329" y1="44.7966" x2="27.8307" y2="25.397" gradientUnits="userSpaceOnUse">
<stop stop-color="#057A5D"/>
<stop offset="1" stop-color="#006C49"/>
</linearGradient>
<linearGradient id="paint1_linear_209_433" x1="8.3615" y1="19.7848" x2="28.9208" y2="37.8332" gradientUnits="userSpaceOnUse">
<stop stop-color="#04A15E"/>
<stop offset="1" stop-color="#013B22"/>
</linearGradient>
<linearGradient id="paint2_linear_209_433" x1="8.3615" y1="19.7847" x2="28.9208" y2="37.8332" gradientUnits="userSpaceOnUse">
<stop stop-color="#04A15E"/>
<stop offset="1" stop-color="#013B22"/>
</linearGradient>
<linearGradient id="paint3_linear_209_433" x1="13.1091" y1="47.3655" x2="31.0888" y2="28.7839" gradientUnits="userSpaceOnUse">
<stop stop-color="#057A5D"/>
<stop offset="1" stop-color="#006C49"/>
</linearGradient>
<linearGradient id="paint4_linear_209_433" x1="7.68369" y1="44.7968" x2="27.8311" y2="25.397" gradientUnits="userSpaceOnUse">
<stop stop-color="#057A5D"/>
<stop offset="1" stop-color="#006C49"/>
</linearGradient>
<linearGradient id="paint5_linear_209_433" x1="8.3615" y1="19.7848" x2="28.9208" y2="37.8332" gradientUnits="userSpaceOnUse">
<stop stop-color="#04A15E"/>
<stop offset="1" stop-color="#013B22"/>
</linearGradient>
<linearGradient id="paint6_linear_209_433" x1="8.3615" y1="19.7847" x2="28.9208" y2="37.8332" gradientUnits="userSpaceOnUse">
<stop stop-color="#04A15E"/>
<stop offset="1" stop-color="#013B22"/>
</linearGradient>
<linearGradient id="paint7_linear_209_433" x1="13.1091" y1="47.3655" x2="31.0888" y2="28.7839" gradientUnits="userSpaceOnUse">
<stop stop-color="#057A5D"/>
<stop offset="1" stop-color="#006C49"/>
</linearGradient>
<linearGradient id="paint8_linear_209_433" x1="7.68369" y1="44.7968" x2="27.8311" y2="25.397" gradientUnits="userSpaceOnUse">
<stop stop-color="#057A5D"/>
<stop offset="1" stop-color="#006C49"/>
</linearGradient>
<clipPath id="clip0_209_433">
<rect width="203" height="52" fill="white"/>
</clipPath>
</defs>
</svg>
