<svg width="88" height="80" viewBox="0 0 88 80" fill="none" xmlns="http://www.w3.org/2000/svg">
<g clip-path="url(#clip0_214_471)">
<g filter="url(#filter0_d_214_471)">
<path d="M43.9907 44.8147L59.1662 32.7744V32.7952L59.2126 32.7583V43.5109L59.1662 43.5483V43.5861L43.9907 55.8721L32.2613 46.452L25.6465 41.1649V56.6093L25.6333 56.598V56.6093L24.5523 55.6755L15.1084 47.6163L15.1581 47.5607L15.1084 47.5177V21.7171L43.9907 44.8147ZM72.8731 48.0091L62.8377 56.6093V29.5802L72.8731 21.7171V48.0091ZM72.8731 16.0656L52.068 32.5287L43.9907 39.4089L15.1084 16.0656V3.04245L44.8134 26.741L73.0822 2.26044L72.8731 16.0656Z" fill="url(#paint0_linear_214_471)"/>
<path d="M43.9906 44.8148L43.5315 45.3909L43.9888 45.7565L44.4474 45.3926L43.9906 44.8148ZM59.166 32.7745H59.9018V31.2504L58.7091 32.1967L59.166 32.7745ZM59.166 32.7952H58.4302V34.321L59.6233 33.3727L59.166 32.7952ZM59.2124 32.7583H59.9482V31.2326L58.755 32.1809L59.2124 32.7583ZM59.2124 43.5109L59.674 44.0848L59.9482 43.8635V43.5109H59.2124ZM59.166 43.5483L58.7043 42.9744L58.4302 43.1956V43.5483H59.166ZM59.166 43.5862L59.6285 44.1594L59.9018 43.9382V43.5862H59.166ZM43.9906 55.8721L43.5304 56.4473L43.9924 56.8184L44.453 56.4454L43.9906 55.8721ZM32.2612 46.452L32.7214 45.877L32.7207 45.8764L32.72 45.8759L32.2612 46.452ZM25.6463 41.1649L26.1053 40.5887L24.9106 39.6338V41.1649H25.6463ZM25.6463 56.6093L25.1682 57.1695L26.3821 58.2094V56.6093H25.6463ZM25.6331 56.598L26.1113 56.0378L24.8973 54.9979V56.598H25.6331ZM25.6331 56.6093L25.1526 57.1676L26.3689 58.2182V56.6093H25.6331ZM24.5521 55.6755L25.0325 55.1173L25.0308 55.1158L25.0292 55.1144L24.5521 55.6755ZM15.1082 47.6163L14.5599 47.1248L14.0571 47.6877L14.631 48.1774L15.1082 47.6163ZM15.158 47.5607L15.7063 48.0522L16.2063 47.4924L15.6381 47.0022L15.158 47.5607ZM15.1082 47.5178H14.3724V47.8557L14.6281 48.0763L15.1082 47.5178ZM15.1082 21.7172L15.5673 21.141L14.3724 20.1856V21.7172H15.1082ZM72.8729 48.0092L73.3512 48.5692L73.6087 48.3486V48.0092H72.8729ZM62.8375 56.6093H62.1017V58.2099L63.3157 57.1694L62.8375 56.6093ZM62.8375 29.5803L62.3841 28.9996L62.1017 29.2209V29.5803H62.8375ZM72.8729 21.7172H73.6087V20.2048L72.4196 21.1365L72.8729 21.7172ZM72.8729 16.0657L73.329 16.644L73.6033 16.4269L73.6086 16.0769L72.8729 16.0657ZM52.0678 32.5288L51.6117 31.9504L51.6013 31.9586L51.5912 31.9673L52.0678 32.5288ZM43.9906 39.409L43.5286 39.9826L44.0029 40.366L44.4673 39.9705L43.9906 39.409ZM15.1082 16.0657H14.3724V16.418L14.6462 16.6393L15.1082 16.0657ZM15.1082 3.04247L15.5666 2.46588L14.3724 1.51318V3.04247H15.1082ZM44.8132 26.741L44.3548 27.3177L44.8324 27.6987L45.2944 27.2987L44.8132 26.741ZM73.0821 2.26045L73.8178 2.27164L73.8427 0.627441L72.6009 1.70282L73.0821 2.26045ZM43.9906 44.8148L44.4474 45.3926L59.6228 33.3523L59.166 32.7745L58.7091 32.1967L43.5338 44.237L43.9906 44.8148ZM59.166 32.7745H58.4302V32.7952H59.166H59.9018V32.7745H59.166ZM59.166 32.7952L59.6233 33.3727L59.6697 33.3358L59.2124 32.7583L58.755 32.1809L58.7086 32.2178L59.166 32.7952ZM59.2124 32.7583H58.4766V43.5109H59.2124H59.9482V32.7583H59.2124ZM59.2124 43.5109L58.7507 42.9369L58.7043 42.9744L59.166 43.5483L59.6277 44.1223L59.674 44.0848L59.2124 43.5109ZM59.166 43.5483H58.4302V43.5862H59.166H59.9018V43.5483H59.166ZM59.166 43.5862L58.7035 43.0129L43.5281 55.2989L43.9906 55.8721L44.453 56.4454L59.6285 44.1594L59.166 43.5862ZM43.9906 55.8721L44.4509 55.297L32.7214 45.877L32.2612 46.452L31.801 47.0271L43.5304 56.4473L43.9906 55.8721ZM32.2612 46.452L32.72 45.8759L26.1053 40.5887L25.6463 41.1649L25.1874 41.741L31.8022 47.0282L32.2612 46.452ZM25.6463 41.1649H24.9106V56.6093H25.6463H26.3821V41.1649H25.6463ZM25.6463 56.6093L26.1245 56.0491L26.1113 56.0378L25.6331 56.598L25.1549 57.1582L25.1682 57.1695L25.6463 56.6093ZM25.6331 56.598H24.8973V56.6093H25.6331H26.3689V56.598H25.6331ZM25.6331 56.6093L26.1136 56.0511L25.0325 55.1173L24.5521 55.6755L24.0716 56.2337L25.1526 57.1676L25.6331 56.6093ZM24.5521 55.6755L25.0292 55.1144L15.5854 47.0552L15.1082 47.6163L14.631 48.1774L24.0749 56.2366L24.5521 55.6755ZM15.1082 47.6163L15.6565 48.1078L15.7063 48.0522L15.158 47.5607L14.6097 47.0691L14.5599 47.1248L15.1082 47.6163ZM15.158 47.5607L15.6381 47.0022L15.5883 46.9592L15.1082 47.5178L14.6281 48.0763L14.6777 48.1192L15.158 47.5607ZM15.1082 47.5178H15.844V21.7172H15.1082H14.3724V47.5178H15.1082ZM15.1082 21.7172L14.6492 22.2932L43.5315 45.3909L43.9906 44.8148L44.4496 44.2387L15.5673 21.141L15.1082 21.7172ZM72.8729 48.0092L72.3946 47.4491L62.3591 56.0493L62.8375 56.6093L63.3157 57.1694L73.3512 48.5692L72.8729 48.0092ZM62.8375 56.6093H63.5733V29.5803H62.8375H62.1017V56.6093H62.8375ZM62.8375 29.5803L63.2907 30.1608L73.3262 22.2977L72.8729 21.7172L72.4196 21.1365L62.3841 28.9996L62.8375 29.5803ZM72.8729 21.7172H72.1371V48.0092H72.8729H73.6087V21.7172H72.8729ZM72.8729 16.0657L72.4168 15.4872L51.6117 31.9504L52.0678 32.5288L52.5239 33.1072L73.329 16.644L72.8729 16.0657ZM52.0678 32.5288L51.5912 31.9673L43.514 38.8475L43.9906 39.409L44.4673 39.9705L52.5445 33.0903L52.0678 32.5288ZM43.9906 39.409L44.4526 38.8353L15.5702 15.492L15.1082 16.0657L14.6462 16.6393L43.5286 39.9826L43.9906 39.409ZM15.1082 16.0657H15.844V3.04247H15.1082H14.3724V16.0657H15.1082ZM15.1082 3.04247L14.6499 3.61907L44.3548 27.3177L44.8132 26.741L45.2715 26.1644L15.5666 2.46588L15.1082 3.04247ZM44.8132 26.741L45.2944 27.2987L73.5632 2.81809L73.0821 2.26045L72.6009 1.70282L44.332 26.1834L44.8132 26.741ZM73.0821 2.26045L72.3463 2.24927L72.1372 16.0545L72.8729 16.0657L73.6086 16.0769L73.8178 2.27164L73.0821 2.26045Z" fill="white"/>
<path d="M52.0677 32.5288L44.1855 27.2844L73.0819 2.26044L72.8728 16.0655L52.0677 32.5288Z" fill="#132334"/>
<path d="M15.1084 47.5178V21.7172L43.9907 44.8148L59.1662 32.7746V43.5862L43.9907 55.8722L25.6333 41.129V56.6094L15.1084 47.5178Z" fill="url(#paint1_linear_214_471)"/>
<path d="M15.1084 16.0655V3.04242L52.068 32.5288L43.9907 39.4089L15.1084 16.0655Z" fill="url(#paint2_linear_214_471)"/>
<path d="M15.1084 47.6163L25.6465 56.6094V41.1649L43.9907 55.8273L59.2125 43.5109V32.7584L43.9907 44.8794L28.5738 32.5629L15.1084 47.6163Z" fill="url(#paint3_linear_214_471)"/>
<path d="M72.8728 21.7172L62.8374 29.5802V56.6094L72.8728 48.0092V21.7172Z" fill="#132334"/>
<path d="M38.3312 21.6149L31.501 29.2394L43.9906 39.4054L51.9917 32.5628L38.3312 21.6149Z" fill="url(#paint4_linear_214_471)"/>
<path d="M52.0677 32.5288L44.1855 27.2844L73.0819 2.26044L72.8728 16.0655L52.0677 32.5288Z" fill="#132334"/>
<path d="M15.1084 47.5178V21.7172L43.9907 44.8148L59.1662 32.7746V43.5862L43.9907 55.8722L25.6333 41.129V56.6094L15.1084 47.5178Z" fill="url(#paint5_linear_214_471)"/>
<path d="M15.1084 16.0655V3.04242L52.068 32.5288L43.9907 39.4089L15.1084 16.0655Z" fill="url(#paint6_linear_214_471)"/>
<path d="M15.1084 47.6163L25.6465 56.6094V41.1649L43.9907 55.8273L59.2125 43.5109V32.7584L43.9907 44.8794L28.5738 32.5629L15.1084 47.6163Z" fill="url(#paint7_linear_214_471)"/>
<path d="M72.8728 21.7172L62.8374 29.5802V56.6094L72.8728 48.0092V21.7172Z" fill="#132334"/>
<path d="M38.3312 21.6149L31.501 29.2394L43.9906 39.4054L51.9917 32.5628L38.3312 21.6149Z" fill="url(#paint8_linear_214_471)"/>
</g>
<path d="M3.01664 78.4275H1.19189V67.6511H3.01664L6.48955 76.231L9.96246 67.6511H11.8166V78.4275H9.99189V75.1106C9.99189 72.9435 9.99189 72.3096 10.0949 71.543L7.35778 78.4275H5.62133L2.89892 71.5578C3.00193 72.2064 3.01664 73.2236 3.01664 74.5651V78.4275ZM15.7132 78.4275H13.756L17.6409 67.6511H19.5687L23.4536 78.4275H21.467L20.5988 75.9361H16.5814L15.7132 78.4275ZM18.362 70.8649L17.1406 74.344H20.0543L18.8182 70.8649C18.7299 70.5848 18.6269 70.2605 18.5975 70.0393C18.5533 70.2457 18.465 70.57 18.362 70.8649ZM26.8415 78.4275L22.78 67.6511H24.7813L27.1358 73.8575C27.3713 74.5062 27.5773 75.1401 27.8127 76.0098C28.0776 75.0664 28.2983 74.403 28.5044 73.8575L30.8295 67.6511H32.7866L28.784 78.4275H26.8415ZM41.3982 78.4275H34.7172V67.6511H41.3982V69.3907H36.6009V72.1622H40.8978V73.828H36.6009V76.688H41.3982V78.4275ZM45.9126 67.6511V76.688H50.4156V78.4275H44.029V67.6511H45.9126ZM54.4195 67.6511V76.688H58.9225V78.4275H52.5359V67.6511H54.4195ZM62.9265 67.6511V78.4275H61.0429V67.6511H62.9265ZM65.8261 74.4914V67.6511H67.7097V74.3735C67.7097 75.9214 68.5485 76.7764 70.0789 76.7764C71.6094 76.7764 72.4629 75.9067 72.4629 74.3735V67.6511H74.3465V74.4914C74.3465 77.0123 72.6983 78.6044 70.0789 78.6044C67.4742 78.6044 65.8261 77.027 65.8261 74.4914ZM79.0768 78.4275H77.252V67.6511H79.0768L82.5497 76.231L86.0226 67.6511H87.8768V78.4275H86.052V75.1106C86.052 72.9435 86.052 72.3096 86.1551 71.543L83.4179 78.4275H81.6815L78.9591 71.5578C79.0621 72.2064 79.0768 73.2236 79.0768 74.5651V78.4275Z" fill="white"/>
</g>
<defs>
<filter id="filter0_d_214_471" x="4.05713" y="-5.37256" width="79.7856" height="77.5908" filterUnits="userSpaceOnUse" color-interpolation-filters="sRGB">
<feFlood flood-opacity="0" result="BackgroundImageFix"/>
<feColorMatrix in="SourceAlpha" type="matrix" values="0 0 0 0 0 0 0 0 0 0 0 0 0 0 0 0 0 0 127 0" result="hardAlpha"/>
<feOffset dy="4"/>
<feGaussianBlur stdDeviation="5"/>
<feComposite in2="hardAlpha" operator="out"/>
<feColorMatrix type="matrix" values="0 0 0 0 0 0 0 0 0 0 0 0 0 0 0 0 0 0 0.3 0"/>
<feBlend mode="normal" in2="BackgroundImageFix" result="effect1_dropShadow_214_471"/>
<feBlend mode="normal" in="SourceGraphic" in2="effect1_dropShadow_214_471" result="shape"/>
</filter>
<linearGradient id="paint0_linear_214_471" x1="25.4514" y1="56.6093" x2="54.5786" y2="28.7049" gradientUnits="userSpaceOnUse">
<stop stop-color="#057A5D"/>
<stop offset="1" stop-color="#006C49"/>
</linearGradient>
<linearGradient id="paint1_linear_214_471" x1="26.4271" y1="20.4419" x2="56.136" y2="46.3908" gradientUnits="userSpaceOnUse">
<stop stop-color="#04A15E"/>
<stop offset="1" stop-color="#013B22"/>
</linearGradient>
<linearGradient id="paint2_linear_214_471" x1="26.4271" y1="20.4418" x2="56.136" y2="46.3908" gradientUnits="userSpaceOnUse">
<stop stop-color="#04A15E"/>
<stop offset="1" stop-color="#013B22"/>
</linearGradient>
<linearGradient id="paint3_linear_214_471" x1="33.2574" y1="60.3238" x2="59.2602" y2="33.5868" gradientUnits="userSpaceOnUse">
<stop stop-color="#057A5D"/>
<stop offset="1" stop-color="#006C49"/>
</linearGradient>
<linearGradient id="paint4_linear_214_471" x1="25.4512" y1="56.6093" x2="54.5785" y2="28.7048" gradientUnits="userSpaceOnUse">
<stop stop-color="#057A5D"/>
<stop offset="1" stop-color="#006C49"/>
</linearGradient>
<linearGradient id="paint5_linear_214_471" x1="26.4271" y1="20.4419" x2="56.136" y2="46.3908" gradientUnits="userSpaceOnUse">
<stop stop-color="#04A15E"/>
<stop offset="1" stop-color="#013B22"/>
</linearGradient>
<linearGradient id="paint6_linear_214_471" x1="26.4271" y1="20.4418" x2="56.136" y2="46.3908" gradientUnits="userSpaceOnUse">
<stop stop-color="#04A15E"/>
<stop offset="1" stop-color="#013B22"/>
</linearGradient>
<linearGradient id="paint7_linear_214_471" x1="33.2574" y1="60.3238" x2="59.2602" y2="33.5868" gradientUnits="userSpaceOnUse">
<stop stop-color="#057A5D"/>
<stop offset="1" stop-color="#006C49"/>
</linearGradient>
<linearGradient id="paint8_linear_214_471" x1="25.4512" y1="56.6093" x2="54.5785" y2="28.7048" gradientUnits="userSpaceOnUse">
<stop stop-color="#057A5D"/>
<stop offset="1" stop-color="#006C49"/>
</linearGradient>
<clipPath id="clip0_214_471">
<rect width="88" height="80" fill="white"/>
</clipPath>
</defs>
</svg>
