<svg width="139" height="48" viewBox="0 0 139 48" fill="none" xmlns="http://www.w3.org/2000/svg">
<g clip-path="url(#clip0_95_93)">
<g filter="url(#filter0_d_95_93)">
<path d="M27.7717 33.8216L37.3545 26.1354V26.1488L37.3839 26.1252V32.9892L37.3545 33.0132V33.0373L27.7717 40.8803L20.3648 34.8668L16.1877 31.4916V41.3509L16.1794 41.3436V41.3509L15.4967 40.7547L9.5332 35.61L9.56461 35.5745L9.5332 35.5471V19.0769L27.7717 33.8216ZM46.0101 35.8608L39.673 41.3509V24.0964L46.0101 19.0769V35.8608ZM46.0101 15.4692L32.8722 25.9787L27.7717 30.3707L9.5332 15.4692V7.15569L28.2911 22.2839L46.1422 6.65649L46.0101 15.4692Z" fill="url(#paint0_linear_95_93)"/>
<path d="M27.7718 33.8216L27.4819 34.1893L27.7707 34.4227L28.0604 34.1904L27.7718 33.8216ZM37.3546 26.1354H37.8193V25.1626L37.0663 25.7667L37.3546 26.1354ZM37.3546 26.1488H36.8901V27.1228L37.6435 26.5173L37.3546 26.1488ZM37.384 26.1252H37.8487V25.1513L37.0952 25.7566L37.384 26.1252ZM37.384 32.9892L37.6755 33.3556L37.8487 33.2143V32.9892H37.384ZM37.3546 33.0132L37.0632 32.6467L36.8901 32.7879V33.0132H37.3546ZM37.3546 33.0373L37.6468 33.4032L37.8193 33.262V33.0373H37.3546ZM27.7718 40.8803L27.4812 41.2474L27.7729 41.4842L28.0638 41.2462L27.7718 40.8803ZM20.3651 34.8668L20.6557 34.4996L20.6551 34.4992L20.6547 34.4989L20.3651 34.8668ZM16.188 31.4916L16.4778 31.1238L15.7233 30.5142V31.4916H16.188ZM16.188 41.3509L15.886 41.7085L16.6525 42.3722V41.3509H16.188ZM16.1795 41.3436L16.4815 40.9859L15.7149 40.3221V41.3436H16.1795ZM16.1795 41.3509L15.8762 41.7072L16.6442 42.3778V41.3509H16.1795ZM15.4969 40.7546L15.8002 40.3983L15.7993 40.3973L15.7981 40.3965L15.4969 40.7546ZM9.53336 35.6099L9.18713 35.2963L8.86963 35.6556L9.23204 35.9681L9.53336 35.6099ZM9.56478 35.5744L9.91102 35.8883L10.2268 35.5309L9.86796 35.2179L9.56478 35.5744ZM9.53336 35.5471H9.06873V35.7628L9.23018 35.9036L9.53336 35.5471ZM9.53336 19.0769L9.82324 18.7092L9.06873 18.0992V19.0769H9.53336ZM46.0102 35.8608L46.3123 36.2184L46.4749 36.0775V35.8608H46.0102ZM39.6732 41.3509H39.2085V42.3726L39.9751 41.7083L39.6732 41.3509ZM39.6732 24.0964L39.3868 23.7257L39.2085 23.8671V24.0964H39.6732ZM46.0102 19.0769H46.4749V18.1116L45.724 18.7062L46.0102 19.0769ZM46.0102 15.4692L46.2983 15.8384L46.4716 15.6998L46.4749 15.4763L46.0102 15.4692ZM32.8724 25.9786L32.5844 25.6094L32.5778 25.6147L32.5714 25.6202L32.8724 25.9786ZM27.7718 30.3706L27.4801 30.737L27.7796 30.9816L28.0728 30.7292L27.7718 30.3706ZM9.53336 15.4692H9.06873V15.6942L9.24164 15.8353L9.53336 15.4692ZM9.53336 7.15568L9.8228 6.7876L9.06873 6.17943V7.15568H9.53336ZM28.2912 22.2839L28.0019 22.652L28.3034 22.8953L28.5952 22.64L28.2912 22.2839ZM46.1423 6.65647L46.6069 6.66361L46.6226 5.61401L45.8385 6.3005L46.1423 6.65647ZM27.7718 33.8216L28.0604 34.1904L37.6432 26.5044L37.3546 26.1354L37.0663 25.7667L27.4834 33.4528L27.7718 33.8216ZM37.3546 26.1354H36.8901V26.1488H37.3546H37.8193V26.1354H37.3546ZM37.3546 26.1488L37.6435 26.5173L37.6727 26.4939L37.384 26.1252L37.0952 25.7566L37.0658 25.7802L37.3546 26.1488ZM37.384 26.1252H36.9194V32.9892H37.384H37.8487V26.1252H37.384ZM37.384 32.9892L37.0924 32.6229L37.0632 32.6467L37.3546 33.0132L37.6462 33.3795L37.6755 33.3556L37.384 32.9892ZM37.3546 33.0132H36.8901V33.0373H37.3546H37.8193V33.0132H37.3546ZM37.3546 33.0373L37.0627 32.6713L27.4798 40.5142L27.7718 40.8803L28.0638 41.2462L37.6468 33.4032L37.3546 33.0373ZM27.7718 40.8803L28.0624 40.5131L20.6557 34.4996L20.3651 34.8668L20.0744 35.2338L27.4812 41.2474L27.7718 40.8803ZM20.3651 34.8668L20.6547 34.4989L16.4778 31.1238L16.188 31.4916L15.8981 31.8595L20.0751 35.2345L20.3651 34.8668ZM16.188 31.4916H15.7233V41.3509H16.188H16.6525V31.4916H16.188ZM16.188 41.3509L16.4898 40.9932L16.4815 40.9859L16.1795 41.3436L15.8776 41.7012L15.886 41.7085L16.188 41.3509ZM16.1795 41.3436H15.7149V41.3509H16.1795H16.6442V41.3436H16.1795ZM16.1795 41.3509L16.483 40.9945L15.8002 40.3983L15.4969 40.7546L15.1935 41.111L15.8762 41.7072L16.1795 41.3509ZM15.4969 40.7546L15.7981 40.3965L9.8347 35.2518L9.53336 35.6099L9.23204 35.9681L15.1956 41.1128L15.4969 40.7546ZM9.53336 35.6099L9.87962 35.9238L9.91102 35.8883L9.56478 35.5744L9.21853 35.2606L9.18713 35.2963L9.53336 35.6099ZM9.56478 35.5744L9.86796 35.2179L9.83656 35.1906L9.53336 35.5471L9.23018 35.9036L9.26153 35.9311L9.56478 35.5744ZM9.53336 35.5471H9.998V19.0769H9.53336H9.06873V35.5471H9.53336ZM9.53336 19.0769L9.2435 19.4446L27.4819 34.1893L27.7718 33.8216L28.0617 33.4539L9.82324 18.7092L9.53336 19.0769ZM46.0102 35.8608L45.7082 35.5033L39.371 40.9932L39.6732 41.3509L39.9751 41.7083L46.3123 36.2184L46.0102 35.8608ZM39.6732 41.3509H40.1378V24.0964H39.6732H39.2085V41.3509H39.6732ZM39.6732 24.0964L39.9593 24.4671L46.2965 19.4476L46.0102 19.0769L45.724 18.7062L39.3868 23.7257L39.6732 24.0964ZM46.0102 19.0769H45.5457V35.8608H46.0102H46.4749V19.0769H46.0102ZM46.0102 15.4692L45.7222 15.0999L32.5844 25.6094L32.8724 25.9786L33.1604 26.3479L46.2983 15.8384L46.0102 15.4692ZM32.8724 25.9786L32.5714 25.6202L27.4708 30.0123L27.7718 30.3706L28.0728 30.7292L33.1734 26.3371L32.8724 25.9786ZM27.7718 30.3706L28.0635 30.0045L9.8251 15.103L9.53336 15.4692L9.24164 15.8353L27.4801 30.737L27.7718 30.3706ZM9.53336 15.4692H9.998V7.15568H9.53336H9.06873V15.4692H9.53336ZM9.53336 7.15568L9.24393 7.52375L28.0019 22.652L28.2912 22.2839L28.5807 21.9159L9.8228 6.7876L9.53336 7.15568ZM28.2912 22.2839L28.5952 22.64L46.4462 7.01244L46.1423 6.65647L45.8385 6.3005L27.9875 21.928L28.2912 22.2839ZM46.1423 6.65647L45.6777 6.64933L45.5457 15.462L46.0102 15.4692L46.4749 15.4763L46.6069 6.66361L46.1423 6.65647Z" fill="white"/>
<path d="M32.8724 25.9787L27.895 22.6309L46.1424 6.65649L46.0103 15.4692L32.8724 25.9787Z" fill="#132334"/>
<path d="M9.5332 35.5471V19.0769L27.7717 33.8216L37.3545 26.1356V33.0373L27.7717 40.8803L16.1794 31.4688V41.3509L9.5332 35.5471Z" fill="url(#paint1_linear_95_93)"/>
<path d="M9.5332 15.4693V7.15576L32.8723 25.9788L27.7717 30.3708L9.5332 15.4693Z" fill="url(#paint2_linear_95_93)"/>
<path d="M9.5332 35.61L16.1877 41.3509V31.4917L27.7717 40.8517L37.3838 32.9893V26.1254L27.7717 33.8629L18.0362 26.0005L9.5332 35.61Z" fill="url(#paint3_linear_95_93)"/>
<path d="M46.01 19.0769L39.6729 24.0964V41.3509L46.01 35.8608V19.0769Z" fill="#132334"/>
<path d="M24.1979 19.0117L19.8848 23.8789L27.7717 30.3685L32.8242 26.0005L24.1979 19.0117Z" fill="url(#paint4_linear_95_93)"/>
<path d="M32.8724 25.9787L27.895 22.6309L46.1424 6.65649L46.0103 15.4692L32.8724 25.9787Z" fill="#132334"/>
<path d="M9.5332 35.5471V19.0769L27.7717 33.8216L37.3545 26.1356V33.0373L27.7717 40.8803L16.1794 31.4688V41.3509L9.5332 35.5471Z" fill="url(#paint5_linear_95_93)"/>
<path d="M9.5332 15.4693V7.15576L32.8723 25.9788L27.7717 30.3708L9.5332 15.4693Z" fill="url(#paint6_linear_95_93)"/>
<path d="M9.5332 35.61L16.1877 41.3509V31.4917L27.7717 40.8517L37.3838 32.9893V26.1254L27.7717 33.8629L18.0362 26.0005L9.5332 35.61Z" fill="url(#paint7_linear_95_93)"/>
<path d="M46.01 19.0769L39.6729 24.0964V41.3509L46.01 35.8608V19.0769Z" fill="#132334"/>
<path d="M24.1979 19.0117L19.8848 23.8789L27.7717 30.3685L32.8242 26.0005L24.1979 19.0117Z" fill="url(#paint8_linear_95_93)"/>
</g>
<path d="M56.3822 28.6449H54.7988V19.1919H56.3822L59.3958 26.7181L62.4093 19.1919H64.0181V28.6449H62.4348V25.7353C62.4348 23.8343 62.4348 23.2782 62.5242 22.6058L60.1491 28.6449H58.6423L56.28 22.6187C56.3694 23.1877 56.3822 24.08 56.3822 25.2569V28.6449ZM67.3993 28.6449H65.701L69.072 19.1919H70.7449L74.1159 28.6449H72.3921L71.6388 26.4594H68.1527L67.3993 28.6449ZM69.6977 22.011L68.638 25.0628H71.1662L70.0937 22.011C70.017 21.7652 69.9277 21.4807 69.902 21.2868C69.8638 21.4678 69.7871 21.7523 69.6977 22.011ZM77.0556 28.6449L73.5314 19.1919H75.268L77.311 24.6361C77.5153 25.2051 77.694 25.7612 77.8985 26.5241C78.1282 25.6965 78.3198 25.1146 78.4985 24.6361L80.516 19.1919H82.2144L78.7412 28.6449H77.0556ZM89.6869 28.6449H83.8896V19.1919H89.6869V20.7178H85.5241V23.1489H89.2527V24.6103H85.5241V27.1189H89.6869V28.6449ZM93.6041 19.1919V27.1189H97.5115V28.6449H91.9696V19.1919H93.6041ZM100.986 19.1919V27.1189H104.893V28.6449H99.3514V19.1919H100.986ZM108.368 19.1919V28.6449H106.733V19.1919H108.368ZM110.884 25.1922V19.1919H112.518V25.0887C112.518 26.4465 113.246 27.1965 114.574 27.1965C115.902 27.1965 116.642 26.4336 116.642 25.0887V19.1919H118.277V25.1922C118.277 27.4034 116.847 28.8 114.574 28.8C112.314 28.8 110.884 27.4165 110.884 25.1922ZM122.382 28.6449H120.798V19.1919H122.382L125.395 26.7181L128.409 19.1919H130.018V28.6449H128.434V25.7353C128.434 23.8343 128.434 23.2782 128.524 22.6058L126.149 28.6449H124.642L122.28 22.6187C122.369 23.1877 122.382 24.08 122.382 25.2569V28.6449Z" fill="white"/>
</g>
<defs>
<filter id="filter0_d_95_93" x="-1.13037" y="-0.385986" width="57.7529" height="56.7637" filterUnits="userSpaceOnUse" color-interpolation-filters="sRGB">
<feFlood flood-opacity="0" result="BackgroundImageFix"/>
<feColorMatrix in="SourceAlpha" type="matrix" values="0 0 0 0 0 0 0 0 0 0 0 0 0 0 0 0 0 0 127 0" result="hardAlpha"/>
<feOffset dy="4"/>
<feGaussianBlur stdDeviation="5"/>
<feComposite in2="hardAlpha" operator="out"/>
<feColorMatrix type="matrix" values="0 0 0 0 0 0 0 0 0 0 0 0 0 0 0 0 0 0 0.3 0"/>
<feBlend mode="normal" in2="BackgroundImageFix" result="effect1_dropShadow_95_93"/>
<feBlend mode="normal" in="SourceGraphic" in2="effect1_dropShadow_95_93" result="shape"/>
</filter>
<linearGradient id="paint0_linear_95_93" x1="16.0645" y1="41.3509" x2="34.6486" y2="23.7392" gradientUnits="userSpaceOnUse">
<stop stop-color="#057A5D"/>
<stop offset="1" stop-color="#006C49"/>
</linearGradient>
<linearGradient id="paint1_linear_95_93" x1="16.6807" y1="18.2629" x2="35.617" y2="34.624" gradientUnits="userSpaceOnUse">
<stop stop-color="#04A15E"/>
<stop offset="1" stop-color="#013B22"/>
</linearGradient>
<linearGradient id="paint2_linear_95_93" x1="16.6807" y1="18.263" x2="35.617" y2="34.6241" gradientUnits="userSpaceOnUse">
<stop stop-color="#04A15E"/>
<stop offset="1" stop-color="#013B22"/>
</linearGradient>
<linearGradient id="paint3_linear_95_93" x1="20.9938" y1="43.722" x2="37.5971" y2="26.8342" gradientUnits="userSpaceOnUse">
<stop stop-color="#057A5D"/>
<stop offset="1" stop-color="#006C49"/>
</linearGradient>
<linearGradient id="paint4_linear_95_93" x1="16.0646" y1="41.3509" x2="34.6486" y2="23.7391" gradientUnits="userSpaceOnUse">
<stop stop-color="#057A5D"/>
<stop offset="1" stop-color="#006C49"/>
</linearGradient>
<linearGradient id="paint5_linear_95_93" x1="16.6807" y1="18.2629" x2="35.617" y2="34.624" gradientUnits="userSpaceOnUse">
<stop stop-color="#04A15E"/>
<stop offset="1" stop-color="#013B22"/>
</linearGradient>
<linearGradient id="paint6_linear_95_93" x1="16.6807" y1="18.263" x2="35.617" y2="34.6241" gradientUnits="userSpaceOnUse">
<stop stop-color="#04A15E"/>
<stop offset="1" stop-color="#013B22"/>
</linearGradient>
<linearGradient id="paint7_linear_95_93" x1="20.9938" y1="43.722" x2="37.5971" y2="26.8342" gradientUnits="userSpaceOnUse">
<stop stop-color="#057A5D"/>
<stop offset="1" stop-color="#006C49"/>
</linearGradient>
<linearGradient id="paint8_linear_95_93" x1="16.0646" y1="41.3509" x2="34.6486" y2="23.7391" gradientUnits="userSpaceOnUse">
<stop stop-color="#057A5D"/>
<stop offset="1" stop-color="#006C49"/>
</linearGradient>
<clipPath id="clip0_95_93">
<rect width="139" height="48" fill="white"/>
</clipPath>
</defs>
</svg>
